<svg id="2cf41747-0c0c-4d70-aad4-093c093adad4" data-name="Layer 1" xmlns="http://www.w3.org/2000/svg" xmlns:xlink="http://www.w3.org/1999/xlink" width="1022.8" height="813.2" viewBox="0 0 1022.84 813.16"><defs><linearGradient id="3cf802be-0480-4c68-848a-073112220499" x1="635.22" y1="545.34" x2="635.22" y2="43.42" gradientUnits="userSpaceOnUse"><stop offset="0" stop-color="grey" stop-opacity="0.25"/><stop offset="0.5" stop-color="grey" stop-opacity="0.12"/><stop offset="1" stop-color="grey" stop-opacity="0.1"/></linearGradient></defs><title>book lover</title><path d="M 688.4 180.8 c -64.7 -2.3 -126.4 -23.1 -185.2 -46 S 386.1 86.7 322.9 74.5 c -40.6 -7.8 -87.1 -8.9 -119.8 12.9 c -31.5 21 -41.7 57.2 -47.2 90.7 c -4.1 25.3 -6.5 51.8 4.8 75.5 c 7.8 16.4 21.7 30.2 31.3 46 c 33.5 54.7 9.8 122.2 -26.4 175.6 c -17 25.1 -36.8 49 -49.9 75.7 s -19.2 57.3 -7.7 84.5 c 11.4 27 38.5 47.2 67.9 61.5 c 59.7 29 130 37.2 198.6 41.9 c 151.8 10.4 304.5 5.9 456.7 1.4 c 56.3 -1.7 112.9 -3.4 168.3 -12.1 c 30.8 -4.8 62.6 -12.5 84.9 -31 c 28.4 -23.5 35.4 -63.4 16.4 -92.9 c -31.9 -49.5 -120 -61.8 -142.3 -114.9 c -12.3 -29.2 0.3 -61.8 18.2 -88.9 c 38.2 -58.2 102.3 -109.2 105.7 -175.7 c 2.3 -45.7 -28.5 -91.4 -76.1 -113 C 956.3 89 887 91.9 850.2 129.4 C 812.2 168 745.6 182.8 688.4 180.8 Z" transform="matrix(1,0,0,1,-88.6,-43.4)" fill="#6c63ff" opacity="0.1"/><polygon points="435.4,690.5 93.2,688.8 59.2,609.1 179.4,600.3 158.5,512.9 396.3,482 168.6,402.9 188.7,398.1 554.9,457.8 534.8,594.3 505.9,669.3 435.4,690.5" fill="#6c63ff"/><path d="M 187 698.8 s 21 -3.4 33.6 11.5 c 0 0 -9.2 7.3 -29.1 -2.8 Z" transform="translate(-88.6,-43.4)" fill="#6c63ff"/><path d="M 184.8 698.5 S 171.4 715 178 733.4 c 0 0 10.9 -4.4 12.1 -26.6 Z" transform="translate(-88.6,-43.4)" fill="#6c63ff"/><path d="M 172.8 671.4 s 8.4 -15.4 42 6.2 c 0 0 -4.5 10.4 -19.3 9.5 S 176.7 679.5 172.8 671.4 Z" transform="translate(-88.6,-43.4)" fill="#6c63ff"/><path d="M 170.6 670.3 s -17.4 -2 -19.1 37.9 c 0 0 11.1 2.3 18.9 -10.3 S 175 678.2 170.6 670.3 Z" transform="translate(-88.6,-43.4)" fill="#6c63ff"/><path d="M 160.4 638.5 s 9.8 -27.2 45.4 -7.8 c 0 0 -8.1 24.9 -41.7 17.1 Z" transform="translate(-88.6,-43.4)" fill="#6c63ff"/><path d="M 149.5 597.9 s 18.5 -27.4 51.2 -2 c 0 0 -11.5 25.8 -48.4 11.8 Z" transform="translate(-88.6,-43.4)" fill="#6c63ff"/><path d="M 145.6 559.2 s 21.6 -25.2 54 0 c 0 0 -20.4 22.1 -54 6.4 Z" transform="translate(-88.6,-43.4)" fill="#6c63ff"/><path d="M 142.2 521.7 s 21.8 -26.3 52.9 -1.4 c 0 0 -24.6 23.2 -52.9 7.6 Z" transform="translate(-88.6,-43.4)" fill="#6c63ff"/><path d="M 144.2 488.4 s 23 -33.9 52.1 -10.9 c 0 0 -24.6 29.1 -52.1 17.4 Z" transform="translate(-88.6,-43.4)" fill="#6c63ff"/><path d="M 149.5 449.4 s 24.4 -33.6 52.6 -7.8 c 0 0 -28.8 29.1 -52.6 14 Z" transform="translate(-88.6,-43.4)" fill="#6c63ff"/><path d="M 157.6 414.7 s 28.8 -31.6 54 -19 c 0 0 -30.1 33.5 -55.3 27.4 Z" transform="translate(-88.6,-43.4)" fill="#6c63ff"/><path d="M 167.7 381.7 S 201 343 220.4 355.9 c 0 0 -24.5 30 -55 33 Z" transform="translate(-88.6,-43.4)" fill="#6c63ff"/><path d="M 182.3 343.4 s 29.1 -31.6 50.4 -23.7 c 0 0 -24.9 32.8 -54.3 33.6 Z" transform="translate(-88.6,-43.4)" fill="#6c63ff"/><path d="M 195.4 307.6 s 32.2 -30.2 46.2 -24.9 c 0 0 -23.2 33.6 -47.6 31.6 Z" transform="translate(-88.6,-43.4)" fill="#6c63ff"/><path d="M 208.3 274.6 s 27.7 -36.1 42.9 -33.3 c 0 0 -16.8 32.2 -42.9 37 Z" transform="translate(-88.6,-43.4)" fill="#6c63ff"/><path d="M 222.3 230.1 s 24.5 -27.7 37.7 -27.6 c 0 0 -19.3 37 -38.8 36.7 Z" transform="translate(-88.6,-43.4)" fill="#6c63ff"/><path d="M 230.6 200.4 l 23.7 -57.7 s 1.2 52.1 -26.7 68.4 Z" transform="translate(-88.6,-43.4)" fill="#6c63ff"/><path d="M 240.2 136.8 s 3.9 -48.2 1.4 -52.1 c 0 0 16.9 40 -1.6 73.4 Z" transform="translate(-88.6,-43.4)" fill="#6c63ff"/><path d="M 159.5 637.8 s -24.5 -15.2 -40.4 22 c 0 0 21.8 14.5 43.3 -12.5 Z" transform="translate(-88.6,-43.4)" fill="#6c63ff"/><path d="M 148.7 596.3 s -30.1 -13.7 -44.7 25.1 c 0 0 23.3 16 47.4 -15.3 Z" transform="translate(-88.6,-43.4)" fill="#6c63ff"/><path d="M 144.2 561.5 s -21.6 -25.2 -54 0 c 0 0 20.4 22.1 54 6.4 Z" transform="translate(-88.6,-43.4)" fill="#6c63ff"/><path d="M 141.5 521.7 s -21.8 -26.3 -52.9 -1.4 c 0 0 24.6 23.2 52.9 7.6 Z" transform="translate(-88.6,-43.4)" fill="#6c63ff"/><path d="M 144.2 489.3 s -15.3 -38 -48.6 -21.6 c 0 0 18 33.6 47.3 27.9 Z" transform="translate(-88.6,-43.4)" fill="#6c63ff"/><path d="M 151.4 449.3 s -15.2 -38.6 -49 -20.7 c 0 0 20.7 35.4 47.5 26.7 Z" transform="translate(-88.6,-43.4)" fill="#6c63ff"/><path d="M 160.9 414.9 s -6 -42.3 -34 -46.1 c 0 0 5.9 44.6 30.2 53.8 Z" transform="translate(-88.6,-43.4)" fill="#6c63ff"/><path d="M 168.4 381.8 s -2.3 -51 -25.5 -52.8 c 0 0 0.8 38.7 22.9 60 Z" transform="translate(-88.6,-43.4)" fill="#6c63ff"/><path d="M 184.7 342 s -6.9 -42.4 -29 -47.6 c 0 0 2.7 41.1 26.8 58 Z" transform="translate(-88.6,-43.4)" fill="#6c63ff"/><path d="M 198.1 308 s -0.2 -44.2 -13.7 -50.7 c 0 0 -8.4 40 9.8 56.3 Z" transform="translate(-88.6,-43.4)" fill="#6c63ff"/><path d="M 209.3 274.1 s -1.9 -45.5 -15.9 -51.9 c 0 0 -4.8 36 13.8 54.9 Z" transform="translate(-88.6,-43.4)" fill="#6c63ff"/><path d="M 224.3 233.7 s -0.1 -37 -10.1 -45.7 c 0 0 -9.9 40.5 4.8 53.1 Z" transform="translate(-88.6,-43.4)" fill="#6c63ff"/><path d="M 229.4 198.6 L 219.7 137 s -13.2 50.5 10.2 72.7 Z" transform="translate(-88.6,-43.4)" fill="#6c63ff"/><path d="M 231.3 137.4 s -24.9 -41.4 -24.4 -46 c 0 0 2.6 43.4 34 65 Z" transform="translate(-88.6,-43.4)" fill="#6c63ff"/><path d="M 234.2 125.1 s -23.5 -58.8 -34.2 -63.6 c 0 0 33.6 17.1 36.1 61.9 Z" transform="translate(-88.6,-43.4)" fill="#6c63ff"/><path d="M 221.2 239.4 l -1.6 -0.5 c 19.9 -64.7 24.8 -106 13.9 -116.3 l 1.1 -1.2 C 246.2 132.3 241.5 173.1 221.2 239.4 Z" transform="translate(-88.6,-43.4)" fill="#444053"/><path d="M 166.5 391 l -2.4 -0.8 c 2.1 -5.9 4.4 -11.9 6.8 -17.9 c 20.7 -51.6 38.4 -99.7 49.7 -136.6 l 2.1 -1 c -11.3 37 -28.7 86.8 -49.4 138.5 C 170.9 379.1 168.6 385.1 166.5 391 Z" transform="translate(-88.6,-43.4)" fill="#444053"/><path d="M 216.6 747.3 c -0.3 -0.3 -32.5 -36.6 -54.9 -98.4 A 364.2 364.2 0 0 1 140 536.1 c -1.5 -48.1 8.6 -101.9 25.9 -150.7 l 1.9 2.2 c -38.8 109.6 -23.4 203.5 -2.9 260 c 22.2 61.3 54 97.1 54.3 97.5 Z" transform="translate(-88.6,-43.4)" fill="#444053"/><path d="M 719.3 670.4 s -22.7 27.7 -4.7 69.5 l -181 78.5 L 516.3 822 l -8 -35 l 5.3 -44.2 V 718.7 Z" transform="translate(-88.6,-43.4)" fill="#d5d6db"/><polygon points="59.2,609.1 309.7,563.4 641.6,616.3 435.4,690.5 59.2,609.1" fill="#6c63ff"/><polygon points="59.2,609.1 309.7,563.4 641.6,616.3 435.4,690.5 59.2,609.1" fill="#6c63ff"/><path d="M 147.7 652.5 s -23.4 44.4 3.6 85.4 l 371.5 80.5 S 499.8 783 524 733.9 Z" transform="translate(-88.6,-43.4)" fill="#6c63ff"/><path d="M 147.7 652.5 s -23.4 44.4 3.6 85.4 l 371.5 80.5 S 499.8 783 524 733.9 Z" transform="translate(-88.6,-43.4)" opacity="0.1"/><path d="M 158.8 667.9 s -13.4 32.5 0 53.5" transform="translate(-88.6,-43.4)" opacity="0.1"/><path d="M 522.8 818.4 l 207.4 -88.5 s 11.6 2.5 4.1 11 s -207.5 86 -207.5 86 l -375.5 -89 Z" transform="translate(-88.6,-43.4)" fill="#6c63ff"/><path d="M 522.8 818.4 l 207.4 -88.5 s 11.6 2.5 4.1 11 s -207.5 86 -207.5 86 l -375.5 -89 Z" transform="translate(-88.6,-43.4)" opacity="0.1"/><path d="M 505.8 742.9 s -20 24 0 60" transform="translate(-88.6,-43.4)" opacity="0.1"/><rect x="510.7" y="757.4" width="94.6" height="1" transform="translate(-299.8,172.2) rotate(-18.4)" opacity="0.1"/><rect x="509.4" y="759.9" width="115.2" height="1" transform="translate(-321.9,207.8) rotate(-20.8)" opacity="0.1"/><rect x="508.7" y="764.6" width="133.6" height="1" transform="translate(-335.5,231.6) rotate(-22.3)" opacity="0.1"/><rect x="508.4" y="766.5" width="153.7" height="1" transform="translate(-352.5,265.6) rotate(-24.3)" opacity="0.1"/><rect x="509.2" y="768.6" width="168.2" height="1" transform="translate(-347,258.6) rotate(-23.6)" opacity="0.1"/><rect x="510.3" y="769.3" width="201.2" height="1" transform="translate(-343.7,261.9) rotate(-23.4)" opacity="0.1"/><polygon points="152.2,613.9 328.2,576.9 435.4,597.4 291.2,643.9 152.2,613.9" fill="#ffffff" opacity="0.3"/><path d="M 730.2 659.7 s 9.1 3.7 3.8 9.3 S 524 733.9 524 733.9 Z" transform="translate(-88.6,-43.4)" fill="#6c63ff"/><path d="M 818.6 574.2 s -22.7 27.7 -4.7 69.5 l -181 78.5 l -17.4 3.7 l -8 -35 L 613 646.7 V 622.5 Z" transform="translate(-88.6,-43.4)" fill="#d5d6db"/><polygon points="158.5,512.9 409,467.2 740.9,520.1 534.8,594.3 158.5,512.9" fill="#3a3768"/><path d="M 247 556.3 s -23.4 44.4 3.6 85.4 l 371.5 80.5 s -23.1 -35.4 1.2 -84.5 Z" transform="translate(-88.6,-43.4)" fill="#3a3768"/><path d="M 247 556.3 s -23.4 44.4 3.6 85.4 l 371.5 80.5 s -23 -35.4 1.2 -84.5 L 505.8 612.3 Z" transform="matrix(1,0,0,1,-88.6,-43.4)" opacity="0.1"/><path d="M 258.1 571.7 s -13.4 32.5 0 53.5" transform="translate(-88.6,-43.4)" opacity="0.1"/><path d="M 622.1 722.2 l 207.4 -88.5 s 11.6 2.5 4.1 11 s -207.5 86 -207.5 86 l -375.5 -89 Z" transform="translate(-88.6,-43.4)" fill="#3a3768"/><path d="M 622.1 722.2 l 207.4 -88.5 s 11.6 2.5 4.1 11 s -207.5 86 -207.5 86 l -375.5 -89 Z" transform="translate(-88.6,-43.4)" opacity="0.1"/><path d="M 605.1 646.7 s -20 24 0 60" transform="translate(-88.6,-43.4)" opacity="0.1"/><rect x="610" y="661.2" width="94.6" height="1" transform="translate(-264.2,198.6) rotate(-18.4)" opacity="0.1"/><rect x="608.6" y="663.7" width="115.2" height="1" transform="translate(-281.2,236.8) rotate(-20.8)" opacity="0.1"/><rect x="608" y="668.4" width="133.6" height="1" transform="translate(-291.7,262) rotate(-22.3)" opacity="0.1"/><rect x="607.7" y="670.3" width="153.7" height="1" transform="translate(-304.1,297.9) rotate(-24.3)" opacity="0.1"/><rect x="608.5" y="672.5" width="168.2" height="1" transform="translate(-300.1,290.3) rotate(-23.6)" opacity="0.1"/><rect x="609.6" y="673.1" width="201.2" height="1" transform="translate(-297.4,293.4) rotate(-23.4)" opacity="0.1"/><polygon points="251.5,517.8 427.5,480.8 534.8,501.3 390.5,547.8 251.5,517.8" fill="#ffffff" opacity="0.45"/><path d="M 829.5 563.5 s 9.1 3.7 3.8 9.3 s -209.9 64.9 -209.9 64.9 Z" transform="translate(-88.6,-43.4)" fill="#3a3768"/><path d="M 828 464.1 s -22.7 49.7 -4.7 91.5 l -181 56.5 L 625 615.8 l -8 -35 l 5.3 -44.2 V 512.5 Z" transform="translate(-88.6,-43.4)" fill="#d5d6db"/><polygon points="167.9,402.9 418.4,357.2 750.4,410.1 544.2,484.3 167.9,402.9" fill="#6c63ff"/><path d="M 256.5 446.3 S 233 490.6 260 531.6 l 371.5 80.5 s -23.1 -35.4 1.2 -84.4 Z" transform="translate(-88.6,-43.4)" fill="#6c63ff"/><path d="M 256.5 446.3 S 233 490.6 260 531.6 l 371.5 80.5 s -23.1 -35.4 1.2 -84.4 Z" transform="translate(-88.6,-43.4)" opacity="0.1"/><path d="M 267.5 461.6 s -13.4 32.5 0 53.5" transform="translate(-88.6,-43.4)" opacity="0.1"/><path d="M 631.5 612.1 l 207.4 -66.5 s 11.6 2.5 4.1 11 s -207.5 64 -207.5 64 l -375.5 -89 Z" transform="translate(-88.6,-43.4)" fill="#6c63ff"/><path d="M 631.5 612.1 l 207.4 -66.5 s 11.6 2.5 4.1 11 s -207.5 64 -207.5 64 l -375.5 -89 Z" transform="translate(-88.6,-43.4)" opacity="0.1"/><path d="M 614.5 536.6 s -20 24 0 60" transform="translate(-88.6,-43.4)" opacity="0.1"/><rect x="619.4" y="551.1" width="94.6" height="1" transform="translate(-228.9,196) rotate(-18.4)" opacity="0.1"/><rect x="618.1" y="553.6" width="115.2" height="1" transform="translate(-241.4,233) rotate(-20.8)" opacity="0.1"/><rect x="617.4" y="558.4" width="133.6" height="1" transform="translate(-249.3,257.4) rotate(-22.3)" opacity="0.1"/><rect x="617.1" y="560.3" width="153.7" height="1" transform="translate(-257.9,292.1) rotate(-24.3)" opacity="0.1"/><rect x="618" y="562.4" width="168.2" height="1" transform="translate(-255.3,284.9) rotate(-23.6)" opacity="0.1"/><rect x="619.1" y="563" width="201.2" height="1" transform="translate(-253,288.1) rotate(-23.4)" opacity="0.1"/><polygon points="261,407.7 437,370.7 544.2,391.2 400,437.7 261,407.7" fill="#ffffff" opacity="0.3"/><path d="M 838.9 453.5 s 9.1 3.7 3.8 9.3 s -209.9 64.9 -209.9 64.9 Z" transform="translate(-88.6,-43.4)" fill="#6c63ff"/><path d="M 399 149.9 s -38 -2.3 -33.6 24.4 c 0 0 -0.9 4.7 3.4 6.8 c 0 0 0.1 -2 3.9 -1.3 a 17.1 17.1 0 0 0 4.1 0.2 a 8.6 8.6 0 0 0 5 -2.1 h 0 s 10.7 -4.4 14.8 -21.9 c 0 0 3.1 -3.8 3 -4.8 L 393.3 154 s 2.2 4.6 0.5 8.5 c 0 0 -0.2 -8.3 -1.4 -8.1 c -0.3 0 -3.3 1.6 -3.3 1.6 s 3.8 8.1 0.9 13.9 c 0 0 1.1 -9.9 -2.1 -13.3 l -4.5 2.6 s 4.4 8.3 1.4 15.1 c 0 0 0.8 -10.4 -2.4 -14.5 l -4.1 3.2 s 4.2 8.2 1.6 13.8 c 0 0 -0.3 -12.1 -2.5 -13.1 c 0 0 -3.6 3.2 -4.1 4.5 c 0 0 2.8 6 1.1 9.1 c 0 0 -1.1 -8.1 -2 -8.1 c 0 0 -3.6 5.4 -3.9 9 a 19.5 19.5 0 0 1 3.1 -9.5 a 10.7 10.7 0 0 0 -5.5 2.8 s 0.6 -3.8 6.3 -4.1 c 0 0 3 -4.1 3.7 -4.3 c 0 0 -5.8 -0.5 -9.3 1.1 c 0 0 3.1 -3.6 10.3 -2 l 4 -3.3 s -7.6 -1 -10.8 0.1 c 0 0 3.7 -3.2 11.9 -0.9 l 4.4 -2.6 s -6.5 -1.4 -10.3 -0.9 c 0 0 4.1 -2.2 11.6 0.2 l 3.1 -1.4 s -4.7 -0.9 -6.1 -1.1 s -1.5 -0.5 -1.5 -0.5 a 16.5 16.5 0 0 1 8.9 1 S 399.1 150.3 399 149.9 Z" transform="translate(-88.6,-43.4)" fill="#6c63ff"/><path d="M 933.6 259.5 s -38 -2.3 -33.6 24.4 c 0 0 -0.9 4.7 3.4 6.8 c 0 0 0.1 -2 3.9 -1.3 a 17.6 17.6 0 0 0 4.1 0.2 a 8.6 8.6 0 0 0 5 -2.1 h 0 s 10.7 -4.4 14.8 -21.9 c 0 0 3.1 -3.8 3 -4.8 l -6.4 2.7 s 2.2 4.6 0.5 8.5 c 0 0 -0.2 -8.3 -1.4 -8.1 c -0.3 0 -3.3 1.6 -3.3 1.6 s 3.8 8.1 0.9 13.9 c 0 0 1.1 -9.9 -2.1 -13.3 l -4.5 2.6 s 4.4 8.3 1.4 15.1 c 0 0 0.8 -10.4 -2.4 -14.5 l -4.1 3.2 s 4.1 8.2 1.6 13.8 c 0 0 -0.3 -12.1 -2.5 -13.1 c 0 0 -3.6 3.2 -4.1 4.5 c 0 0 2.8 6 1.1 9.1 c 0 0 -1.1 -8.1 -2 -8.1 c 0 0 -3.6 5.4 -3.9 9 a 19.4 19.4 0 0 1 3.1 -9.5 a 10.8 10.8 0 0 0 -5.5 2.8 s 0.6 -3.8 6.3 -4.1 c 0 0 3 -4.1 3.7 -4.3 c 0 0 -5.8 -0.5 -9.3 1.1 c 0 0 3.1 -3.6 10.3 -2 l 4 -3.3 s -7.6 -1 -10.8 0.1 c 0 0 3.7 -3.2 11.9 -0.9 l 4.4 -2.6 s -6.5 -1.4 -10.3 -0.9 c 0 0 4.1 -2.2 11.6 0.2 l 3.1 -1.4 s -4.7 -0.9 -6.1 -1.1 s -1.5 -0.5 -1.5 -0.5 a 16.4 16.4 0 0 1 8.9 1 S 933.7 259.9 933.6 259.5 Z" transform="translate(-88.6,-43.4)" fill="#6c63ff" opacity="0.1"/><path d="M 463 314.6 s -16.6 -34.3 -37.6 -17.4 c 0 0 -4.5 1.5 -4.3 6.3 c 0 0 1.8 -0.9 3 2.8 a 17.7 17.7 0 0 0 1.8 3.7 a 8.6 8.6 0 0 0 4.3 3.4 h 0 s 9.1 7.2 26.4 2.3 c 0 0 4.8 0.8 5.6 0.3 l -5.5 -4.3 s -3 4.2 -7.2 4.5 c 0 0 7.2 -4.2 6.4 -5.2 c -0.2 -0.2 -3 -2.1 -3 -2.1 s -5.2 7.2 -11.7 7.6 c 0 0 9.2 -3.9 10.6 -8.3 l -4.5 -2.7 s -5.1 7.9 -12.5 8.6 c 0 0 9.5 -4.4 11.5 -9.1 l -4.8 -2 s -5.2 7.6 -11.3 8.2 c 0 0 10.4 -6.2 10.2 -8.6 c 0 0 -4.5 -1.6 -5.9 -1.4 c 0 0 -3.8 5.4 -7.4 5.4 c 0 0 6.5 -4.9 6.1 -5.7 c 0 0 -6.4 -0.5 -9.8 1 a 19.5 19.5 0 0 1 9.8 -2 a 10.8 10.8 0 0 0 -5.1 -3.4 s 3.6 -1.4 6.7 3.5 c 0 0 5 0.6 5.6 1.2 c 0 0 -2.4 -5.3 -5.4 -7.5 c 0 0 4.6 0.9 6.7 8 l 4.8 1.9 s -2.8 -7.1 -5.4 -9.4 c 0 0 4.6 1.7 6.5 10 l 4.4 2.6 s -1.9 -6.3 -4.3 -9.4 c 0 0 3.9 2.5 5.5 10.2 l 2.8 2.1 s -1.5 -4.6 -2 -5.9 s -0.3 -1.5 -0.3 -1.5 a 16.4 16.4 0 0 1 3.5 8.3 S 462.6 314.9 463 314.6 Z" transform="translate(-88.6,-43.4)" fill="#6c63ff" opacity="0.1"/><path d="M 846.8 211 s -16.6 -34.3 -37.6 -17.4 c 0 0 -4.5 1.5 -4.3 6.3 c 0 0 1.8 -0.9 3 2.8 a 17.3 17.3 0 0 0 1.9 3.7 a 8.6 8.6 0 0 0 4.3 3.4 h 0 s 9.1 7.2 26.4 2.3 c 0 0 4.8 0.8 5.6 0.2 L 840.4 208 s -3 4.2 -7.2 4.5 c 0 0 7.2 -4.2 6.4 -5.2 c -0.2 -0.2 -3 -2.1 -3 -2.1 s -5.2 7.2 -11.7 7.6 c 0 0 9.2 -3.9 10.6 -8.3 L 831 201.8 s -5.1 7.9 -12.5 8.6 c 0 0 9.5 -4.4 11.5 -9.1 l -4.8 -2 s -5.2 7.6 -11.3 8.2 c 0 0 10.4 -6.2 10.2 -8.6 c 0 0 -4.5 -1.6 -5.9 -1.4 c 0 0 -3.8 5.4 -7.4 5.4 c 0 0 6.5 -4.9 6.1 -5.7 c 0 0 -6.4 -0.5 -9.8 1 a 19.5 19.5 0 0 1 9.8 -2 a 10.7 10.7 0 0 0 -5.1 -3.4 s 3.6 -1.4 6.7 3.5 c 0 0 5 0.6 5.6 1.2 c 0 0 -2.4 -5.3 -5.5 -7.6 c 0 0 4.6 0.9 6.7 8.1 l 4.9 1.9 s -2.8 -7.1 -5.4 -9.4 c 0 0 4.6 1.7 6.5 10 l 4.5 2.6 s -1.9 -6.3 -4.3 -9.4 c 0 0 3.9 2.5 5.5 10.2 l 2.8 2.1 s -1.5 -4.6 -2 -5.9 s -0.3 -1.5 -0.3 -1.5 a 16.4 16.4 0 0 1 3.5 8.3 S 846.5 211.3 846.8 211 Z" transform="translate(-88.6,-43.4)" fill="#6c63ff" opacity="0.1"/><path d="M 899.7 380.8 S 883.1 346.5 862 363.4 c 0 0 -4.5 1.5 -4.3 6.3 c 0 0 1.8 -0.9 3 2.8 a 17.3 17.3 0 0 0 1.8 3.7 a 8.6 8.6 0 0 0 4.3 3.4 h 0 s 9.1 7.2 26.4 2.3 c 0 0 4.8 0.8 5.6 0.2 l -5.5 -4.3 s -3 4.2 -7.2 4.5 c 0 0 7.2 -4.2 6.4 -5.2 c -0.2 -0.2 -3 -2.1 -3 -2.1 s -5.2 7.2 -11.7 7.6 c 0 0 9.2 -3.9 10.6 -8.3 l -4.5 -2.7 s -5.1 7.9 -12.5 8.6 c 0 0 9.5 -4.4 11.5 -9.1 l -4.8 -2 s -5.2 7.6 -11.3 8.2 c 0 0 10.4 -6.2 10.2 -8.6 c 0 0 -4.5 -1.6 -5.9 -1.4 c 0 0 -3.8 5.4 -7.4 5.4 c 0 0 6.5 -4.9 6.1 -5.7 c 0 0 -6.4 -0.5 -9.8 1 a 19.5 19.5 0 0 1 9.8 -2 a 10.7 10.7 0 0 0 -5.1 -3.4 s 3.6 -1.4 6.7 3.5 c 0 0 5 0.6 5.6 1.2 c 0 0 -2.4 -5.3 -5.4 -7.6 c 0 0 4.6 0.9 6.7 8.1 l 4.8 1.9 s -2.8 -7.1 -5.4 -9.4 c 0 0 4.6 1.7 6.5 10 l 4.5 2.5 s -1.9 -6.3 -4.3 -9.4 c 0 0 3.9 2.5 5.5 10.2 l 2.8 2 s -1.5 -4.6 -2 -5.9 s -0.3 -1.5 -0.3 -1.5 a 16.4 16.4 0 0 1 3.5 8.3 S 899.4 381.1 899.7 380.8 Z" transform="translate(-88.6,-43.4)" fill="#6c63ff" opacity="0.1"/><ellipse cx="201.9" cy="781.6" rx="23" ry="2.6" fill="#6c63ff" opacity="0.1"/><ellipse cx="51.2" cy="737.9" rx="23" ry="2.6" fill="#6c63ff" opacity="0.1"/><ellipse cx="316.8" cy="810.6" rx="23" ry="2.6" fill="#6c63ff" opacity="0.1"/><ellipse cx="905.5" cy="747.4" rx="23" ry="2.6" fill="#6c63ff" opacity="0.1"/><ellipse cx="714.2" cy="734.9" rx="23" ry="2.6" fill="#6c63ff" opacity="0.1"/><ellipse cx="590.5" cy="793.7" rx="27.2" ry="4.7" fill="#6c63ff" opacity="0.1"/><path d="M 691.2 790.1 s -37.9 19.6 -18.3 42.6 c 0 0 1.8 5 7.2 4.7 c 0 0 -1.1 -1.9 3 -3.5 a 19.5 19.5 0 0 0 4.1 -2.2 a 9.6 9.6 0 0 0 3.7 -4.9 h 0 s 7.7 -10.4 1.7 -29.5 c 0 0 0.8 -5.4 0.1 -6.3 l -4.6 6.3 s 4.8 3.2 5.3 7.9 c 0 0 -5 -7.9 -6 -7 c -0.2 0.2 -2.3 3.5 -2.3 3.5 s 8.2 5.6 8.8 12.8 c 0 0 -4.6 -10.2 -9.7 -11.6 L 681.4 808 s 9 5.5 10 13.7 c 0 0 -5.2 -10.4 -10.6 -12.6 l -2.1 5.4 s 8.7 5.5 9.5 12.4 c 0 0 -7.3 -11.5 -9.9 -11.1 c 0 0 -1.6 5.1 -1.4 6.7 c 0 0 6.1 4.1 6.2 8.1 c 0 0 -5.7 -7.2 -6.5 -6.7 c 0 0 -0.4 7.2 1.4 10.9 c 0 0 -3 -5.3 -2.5 -10.9 a 12 12 0 0 0 -3.6 5.8 s -1.6 -4 3.7 -7.6 c 0 0 0.5 -5.6 1.1 -6.3 c 0 0 -5.8 2.8 -8.3 6.3 c 0 0 0.9 -5.2 8.8 -7.8 l 2 -5.5 s -7.9 3.3 -10.3 6.3 c 0 0 1.8 -5.2 10.9 -7.6 l 2.7 -5 s -7 2.4 -10.4 5 c 0 0 2.6 -4.4 11.3 -6.5 l 2.2 -3.1 s -5.1 1.8 -6.5 2.5 s -1.7 0.3 -1.7 0.3 a 18.4 18.4 0 0 1 9.1 -4.1 S 691.5 790.5 691.2 790.1 Z" transform="translate(-88.6,-43.4)" fill="#6c63ff"/><path d="M 803.5 420.7 C 797 402.9 761 401.3 745.4 405.8 c -11.1 3.2 -34.5 6.9 -47 8.7 l -0.8 -0.8 c 1.6 -0.5 1.7 -1.7 1.5 -3.4 a 53.4 53.4 0 0 1 0.1 -6.9 c 7.7 2.4 14.5 -3.3 14.5 -3.3 h 0 c 9 -4 6.6 -21.1 8.3 -25.8 c 1.3 -3.5 2.7 -24.1 3.3 -34.4 l 0.1 0 l 0.1 -3.5 c 0.1 -1.5 0.1 -2.4 0.1 -2.4 s 0.9 -25.1 2.6 -30.2 c 1.6 -4.7 2.9 -28.3 3.1 -32 c 0 -0.3 0 -0.5 0 -0.5 l -0.1 -2.2 c 0.1 -1.6 0.1 -3.4 0.1 -5.2 c 0 -8.6 -0.9 -19.3 -1 -21.1 c 0 -0.3 0 -0.6 0 -0.9 c 0.1 -3.6 -0.4 -21.9 -15.9 -28.8 c -5.7 -2.6 -12.6 -5.6 -19.3 -8.6 c -1.7 -14.8 -5.7 -29.6 -5.3 -44.6 c 0 -2.3 0.2 -4.5 0.4 -6.7 c 0 0.7 -0.1 1.3 -0.1 2 c 0 1.4 0 2.9 0 4.4 c 0.6 -18.7 7.7 -37.5 7 -55.8 c -0.1 1.8 -0.2 3.6 -0.4 5.4 a 58.1 58.1 0 0 0 -1.9 -18.4 c -0.6 -2.1 -1.4 -4.3 -3.1 -5.7 a 12.9 12.9 0 0 0 -5.5 -2.2 a 110.2 110.2 0 0 0 -14.4 -2.7 A 22.2 22.2 0 0 0 668.5 74 c -10.1 -13.9 -25.2 -27 -42.9 -30 c -8.9 -1.5 -19.2 -0.3 -25.2 6.1 a 18.9 18.9 0 0 0 -1.8 1.8 c -3.3 3.9 -4.7 9 -8 12.9 c -0.2 0.3 -0.5 0.5 -0.7 0.8 c -6.5 5.8 -16.7 7.1 -24 12.3 A 28.8 28.8 0 0 0 562.3 81 a 60.9 60.9 0 0 0 -7.8 9.5 c -3.3 4.6 -6.6 9.4 -7.7 14.9 c -2.1 11 5.4 21.4 6.8 32.5 c 3.1 24.8 -24.3 46.8 -19.1 71.2 a 32.6 32.6 0 0 0 8.8 15.8 C 532.6 234.6 523.5 244 523.5 244 l 0 0.6 l -1.7 0 l 0.2 2 h -0.2 l 0.9 10.8 l -0.9 15.8 s 0 0.2 0 0.5 v 0.1 l 0 0.4 s 0 0.2 0 0.5 h 0.1 c 0.3 5.8 1.5 26.6 3 31 c 1.7 5.1 2.6 30.2 2.6 30.2 s 1.9 35.5 3.6 40.2 s -0.7 21.8 8.3 25.8 h 0 a 19 19 0 0 0 9.1 3.8 c -0.5 3.7 -0.2 6.5 1.3 7.3 a 4.4 4.4 0 0 0 2.1 0.6 a 22.3 22.3 0 0 0 -1.6 2.9 A 42.4 42.4 0 0 1 539.8 414 c -9.7 -4 -41.9 -13 -51.2 -6.7 s -31.9 12.1 -21.5 37.5 S 482.3 471 482.3 471 a 37 37 0 0 1 8.3 8.3 c 3.1 4.7 32.2 15.4 39.5 15.4 a 71.2 71.2 0 0 1 9.3 0.5 s -7.9 6.9 -6.8 10.9 s -2.4 36.2 -2.4 36.2 s 8 8.1 11.4 -2.5 l 0.1 0.2 c 0.6 0.9 4.1 4.8 10.6 -0.2 a 59.5 59.5 0 0 1 8.5 -5.4 l 31.5 -4.5 a 89.2 89.2 0 0 1 9.9 -0.1 c 5 0.4 9.9 -2.5 13 -4.8 c 6.5 2.5 13.9 5.2 17.4 6.2 c 7.1 2 39.6 10.7 47.2 8 a 10.6 10.6 0 0 0 4.1 -2.9 l 7.3 0.2 l -3.4 0.7 s 6.6 0.1 15.6 0.2 l -0.4 0.2 l 11.3 -0.1 c 16.5 0.1 35.1 0.2 37.5 -0.3 c 3.8 -0.8 23.7 -0.3 29.5 0 l 1.6 0 s 21.8 -4.3 12.8 -26.5 c -6.9 -17 -28.2 -21.9 -37.6 -23.3 c 2.7 -0.5 5 -0.9 6.5 -1.2 c 6.6 -1 19.4 -7 20.4 -9.1 s 11.8 -8 14.5 -11.4 S 810.1 438.5 803.5 420.7 Z M 622.9 470.4 l -1.1 0.3 l -0.7 0.2 l -1.4 1.4 c -1.1 -0.7 -2.3 -1.5 -3.5 -2.3 C 618.4 470.2 620.6 470.3 622.9 470.4 Z m 95.3 28.2 h 0 Z" transform="translate(-88.6,-43.4)" fill="url(#3cf802be-0480-4c68-848a-073112220499)"/><path d="M 686.6 365 s 15.3 40 24 36 s 6.3 -21 8 -25.7 s 3.5 -40 3.5 -40 s 0.8 -25 2.5 -30.1 c 1.5 -4.7 2.8 -28.1 3 -31.8 c 0 -0.3 0 -0.5 0 -0.5 L 726 244 l -9.3 -2.3 l -21.7 8 l -3 17.1 l -1.2 6.7 l -0.5 2.9 Z" transform="translate(-88.6,-43.4)" fill="#be6f72"/><path d="M 691.7 358.3 s 14.6 11.9 19 13 s 7.1 10.4 7.1 10.4" transform="translate(-88.6,-43.4)" opacity="0.1"/><path d="M 567 366.8 s -15.3 40 -24 36 s -6.3 -21 -8 -25.7 s -3.5 -40 -3.5 -40 s -0.8 -25 -2.5 -30.1 c -1.5 -4.7 -2.8 -28.1 -3 -31.8 c 0 -0.3 0 -0.5 0 -0.5 l 1.7 -29 l 9.3 -2.3 l 21.7 8 l 3 17.1 l 1.2 6.7 l 0.5 2.9 Z" transform="translate(-88.6,-43.4)" fill="#be6f72"/><rect x="543.9" y="109.3" width="34.1" height="53.2" fill="#3e373a"/><rect x="543.9" y="109.3" width="34.1" height="53.2" opacity="0.1"/><path d="M 561 406.6 s -11.7 12.8 -7.3 15.2 s 32.3 46 32.3 46 s 92 11.3 109.3 -5.7 s 17 -47.4 17 -47.4 s -13.9 3 -15.5 1.4 s -9.9 -9.5 -9.9 -9.5 S 569 399.4 561 406.6 Z" transform="translate(-88.6,-43.4)" fill="#4b4b5b"/><path d="M 561 406.6 s -11.7 12.8 -7.3 15.2 s 32.3 46 32.3 46 s 92 11.3 109.3 -5.7 s 17 -47.4 17 -47.4 s -13.9 3 -15.5 1.4 s -9.9 -9.5 -9.9 -9.5 S 569 399.4 561 406.6 Z" transform="translate(-88.6,-43.4)" opacity="0.02"/><path d="M 726.6 244.4 l -30 24 l -9.1 0.7 l -3.3 0.2 l -55.9 4.1 l -58 -4.2 l -8.6 -0.6 l -11 -0.8 l -23 -22 s 16.3 -17.4 30.5 -29.2 c 5.6 -4.7 10.9 -8.4 14.8 -9.9 l 0.7 -0.2 A 16.5 16.5 0 0 0 580 202 c 11.3 -11.6 21.7 -40.3 21.7 -40.3 s 49.7 -25.7 43.7 8 s 22.3 25.3 22.3 25.3 l 9.3 4.3 l 3.7 1.7 l 9.4 4.3 l 21.2 9.7 C 728 222.8 726.6 244.4 726.6 244.4 Z" transform="translate(-88.6,-43.4)" fill="#be6f72"/><circle cx="537.4" cy="101.1" r="44.7" opacity="0.1"/><path d="M 726.7 276.2 H 526 c 0 -0.3 0 -0.5 0 -0.5 l 1.7 -29 s 16.3 -17.4 30.5 -29.2 l 126 -5 l 5.9 -6.2 l 21.2 9.7 c 16.7 7.7 15.3 29.3 15.3 29.3 S 728.9 270.5 726.7 276.2 Z" transform="translate(-88.6,-43.4)" opacity="0.1"/><path d="M 726.7 275.2 H 526 c 0 -0.3 0 -0.5 0 -0.5 l 1.7 -29 s 16.3 -17.4 30.5 -29.2 l 126 -5 l 5.9 -6.2 l 21.2 9.7 c 16.7 7.7 15.3 29.3 15.3 29.3 S 728.9 269.5 726.7 275.2 Z" transform="translate(-88.6,-43.4)" fill="#e7c7ca"/><path d="M 593.8 193.9 s 31.7 40.3 73.8 -0.8 s 4.7 91.8 4.7 91.8 l -91 10.8 Z" transform="translate(-88.6,-43.4)" opacity="0.1"/><path d="M 593.8 195.9 s 31.7 40.3 73.8 -0.8 s 4.7 91.8 4.7 91.8 l -91 10.8 Z" transform="translate(-88.6,-43.4)" fill="#e7c7ca"/><path d="M 680.6 203 L 684 254.1 l 3.6 17 l 2.7 13 s 7 100 5 105 s 1 9 1.4 11.7 s -0.4 9.3 -0.1 12.3 s 0 4.3 -7.7 3.3 s -18.3 -2.9 -18.3 -2.9 s -27 2 -36.3 -1.3 s -27 -3.3 -27 -3.3 s -26.7 0.7 -35.3 -0.3 s -13.3 10.7 -19 7.3 s 6.7 -35.7 10.7 -45 s -5.3 -33 -5.3 -33 l 12 -66.6 L 573 256.1 V 208.7 l 0.7 -0.2 A 16.5 16.5 0 0 0 580 204 l 3 47.7 l 94 3.3 V 201.3" transform="translate(-88.6,-43.4)" opacity="0.1"/><path d="M 680.6 201 L 684 252.1 l 3.6 17 l 2.7 13 s 7 100 5 105 s 1 9 1.4 11.7 s -0.4 9.3 -0.1 12.3 s 0 4.3 -7.7 3.3 s -18.3 -2.9 -18.3 -2.9 s -27 2 -36.3 -1.3 s -27 -3.3 -27 -3.3 s -26.7 0.7 -35.3 -0.3 s -13.3 10.7 -19 7.3 s 6.7 -35.7 10.7 -45 s -5.3 -33 -5.3 -33 l 12 -66.6 L 573 254.1 V 206.7 l 0.7 -0.2 A 16.5 16.5 0 0 0 580 202 l 3 47.7 l 94 3.3 V 199.3" transform="translate(-88.6,-43.4)" fill="#e7c7ca"/><path d="M 691.5 94.4 c -0.6 -2.1 -1.4 -4.3 -3 -5.7 a 12.3 12.3 0 0 0 -5.3 -2.2 A 104.3 104.3 0 0 0 669.3 83.9 a 22.2 22.2 0 0 0 -3 -6.2 C 656.5 63.8 642 50.8 624.9 47.8 c -8.9 -1.6 -19.3 -0.2 -25 6.9 c -3.1 3.9 -4.5 9 -7.7 12.8 c -6.1 7.4 -17.1 8.3 -24.8 14 c -4.1 3 -7.1 7.3 -10 11.6 c -3.1 4.6 -6.4 9.3 -7.4 14.8 c -2 10.9 5.2 21.3 6.5 32.3 c 3 24.6 -23.4 46.5 -18.4 70.8 c 2.9 14.2 16 24.1 29.5 29.2 c 4.8 1.8 10.2 3.6 12.4 8.2 c 1 2 1.2 4.3 2.1 6.3 c 3.2 6.7 13.6 7 19.1 2.1 s 7.3 -12.8 8 -20.3 c 2.7 -32.4 -10.3 -64.3 -8.8 -96.8 c 0.5 -9.8 3.2 -20.9 12 -25.4 c 11.8 -6 26.1 4 39.1 2.1 a 77.5 77.5 0 0 1 3.7 47.3 c -2.1 8.6 -5.7 17 -5.9 25.9 c -0.4 13.6 6.9 25.9 13.2 37.9 a 20.2 20.2 0 0 1 2.7 7.3 a 17.6 17.6 0 0 1 -1.4 7.7 c -3.6 9.6 -9.7 18.5 -10.4 28.8 a 4.7 4.7 0 0 0 0.8 3.4 a 4.3 4.3 0 0 0 2.6 1.2 c 10.8 1.9 20.1 -7.7 25.4 -17.3 A 81.2 81.2 0 0 0 692.4 224 c 1.1 -20.4 -6.2 -40.4 -5.8 -60.8 C 687.1 140.1 697.6 116.7 691.5 94.4 Z" transform="translate(-88.6,-43.4)" opacity="0.1"/><path d="M 692.5 93.4 c -0.6 -2.1 -1.4 -4.3 -3 -5.7 a 12.3 12.3 0 0 0 -5.3 -2.2 A 104.3 104.3 0 0 0 670.3 82.9 a 22.2 22.2 0 0 0 -3 -6.2 C 657.5 62.8 643 49.8 625.9 46.8 c -8.9 -1.6 -19.3 -0.2 -25 6.9 c -3.1 3.9 -4.5 9 -7.7 12.8 c -6.1 7.4 -17.1 8.3 -24.8 14 c -4.1 3 -7.1 7.3 -10 11.6 c -3.1 4.6 -6.4 9.3 -7.4 14.8 c -2 10.9 5.2 21.3 6.5 32.3 c 3 24.6 -23.4 46.5 -18.4 70.8 c 2.9 14.2 16 24.1 29.5 29.2 c 4.8 1.8 10.2 3.6 12.4 8.2 c 1 2 1.2 4.3 2.1 6.3 c 3.2 6.7 13.6 7 19.1 2.1 s 7.3 -12.8 8 -20.3 c 2.7 -32.4 -10.3 -64.3 -8.8 -96.8 c 0.5 -9.8 3.2 -20.9 12 -25.4 c 11.8 -6 26.1 4 39.1 2.1 a 77.5 77.5 0 0 1 3.7 47.3 c -2.1 8.6 -5.7 17 -5.9 25.9 c -0.4 13.6 6.9 25.9 13.2 37.9 a 20.2 20.2 0 0 1 2.7 7.3 a 17.6 17.6 0 0 1 -1.4 7.7 c -3.6 9.6 -9.7 18.5 -10.4 28.8 a 4.7 4.7 0 0 0 0.8 3.4 a 4.3 4.3 0 0 0 2.6 1.2 c 10.8 1.9 20.1 -7.7 25.4 -17.3 A 81.2 81.2 0 0 0 693.4 223 c 1.1 -20.4 -6.2 -40.4 -5.8 -60.8 C 688.1 139.1 698.6 115.7 692.5 93.4 Z" transform="translate(-88.6,-43.4)" fill="#3e373a"/><polygon points="581.8,492.7 621.5,494 615.8,464.6 585.4,467.5 581.8,492.7" fill="#c3c7d9"/><path d="M 793.3 466.4 c -2.7 3.3 -13 9.3 -14 11.3 s -13.3 8 -19.7 9 s -26.3 5.3 -30 7.7 c -2.6 1.7 -23.7 7 -37.6 9.9 a 106.8 106.8 0 0 1 -11.4 2 c -6 0.3 -71.7 -22 -71.7 -22 l 12.7 -13 l 0.7 -0.2 c 3.6 -1.2 20.1 -6.8 29.3 -9.5 c 10.3 -3 22.3 -15.3 22.3 -15.3 s 17.7 -6 20 -6.7 s -6 -23.3 -6 -23.3 s 38.3 -5.3 53.3 -9.8 s 49.7 -2.8 56 14.8 S 796 463.1 793.3 466.4 Z" transform="translate(-88.6,-43.4)" fill="#4b4b5b"/><path d="M 618.6 522.8 s -7.7 8 -15.3 7.3 s -34.5 2 -34.5 2 a 53.8 53.8 0 0 0 -13.5 7.8 c -6.3 4.9 -9.6 1 -10.2 0.2 l -0.1 -0.2 c -3.3 10.5 -11 2.5 -11 2.5 s 3.3 -32 2.3 -36 s 6.6 -10.9 6.6 -10.9 l 9 -2.3 l 22.8 -5.8 l 32.7 11.3 Z" transform="translate(-88.6,-43.4)" fill="#e7c7ca"/><path d="M 551.8 493.3 l -6.8 46.8 l -0.1 -0.2 c -3.3 10.5 -11 2.5 -11 2.5 s 3.3 -32 2.3 -36 s 6.6 -10.9 6.6 -10.9 Z" transform="translate(-88.6,-43.4)" opacity="0.1"/><path d="M 599 360.1 s 17.7 6 33 0" transform="translate(-88.6,-43.4)" opacity="0.1"/><path d="M 659.3 371.4 s 7.3 3.7 13 0" transform="translate(-88.6,-43.4)" opacity="0.1"/><path d="M 659.3 380.1 s 12.3 1.6 14.7 -1.7" transform="translate(-88.6,-43.4)" opacity="0.1"/><path d="M 655.3 398.8 s 23.2 -3 28.9 -7" transform="translate(-88.6,-43.4)" opacity="0.1"/><path d="M 584.6 391.8 s 13 7.3 22.7 7" transform="translate(-88.6,-43.4)" opacity="0.1"/><path d="M 692 504.4 a 106.8 106.8 0 0 1 -11.4 2 c -6 0.3 -71.7 -22 -71.7 -22 l 12.7 -13 l 0.7 -0.2 c 2 1.4 3.6 2.6 4.8 3.5 c 5.5 4.3 10.8 -1.3 12.8 -1.3 s 19.3 14.3 19.3 14.3 s 16 3.7 18.7 7 s 12 2.7 13.7 5 C 692.1 500.4 692.2 502.2 692 504.4 Z" transform="translate(-88.6,-43.4)" opacity="0.1"/><path d="M 568.8 417.8 s -16.2 0.9 -25.5 -3 s -40.3 -13 -49.3 -6.6 s -30.7 12 -20.7 37.3 s 14.7 26 14.7 26 a 36.1 36.1 0 0 1 8 8.3 c 3 4.7 31 15.3 38 15.3 s 19.3 0 36.7 12 s 33 13.3 33 13.3 s 22 9 28.9 11 s 38.1 10.7 45.5 8 s 12 -19.3 12 -19.3 s 3.3 -15 1.7 -17.3 s -11 -1.7 -13.7 -5 s -18.7 -7 -18.7 -7 S 642 476.4 640 476.4 s -7.3 5.7 -12.8 1.3 a 292.7 292.7 0 0 0 -34.5 -22 C 580 449.1 568.8 417.8 568.8 417.8 Z" transform="translate(-88.6,-43.4)" fill="#4b4b5b"/><path d="M 536.3 427.4 a 19.1 19.1 0 0 1 16.4 4.3 c 8 6.7 34.9 20.1 34.9 20.1" transform="translate(-88.6,-43.4)" opacity="0.1"/><path d="M 736.3 427 s -35.7 5.4 -42.3 12.7" transform="translate(-88.6,-43.4)" opacity="0.1"/><path d="M 777.3 537.4 l -1.6 0 c -5.6 -0.2 -24.8 -0.8 -28.4 0 c -4.3 1 -61.7 0 -61.7 0 l 11.2 -2.3 s -4.2 -14.6 -1.5 -15.8 c 0 0 -15 -9.9 -3.7 -16.6 s 23.5 -3.9 23.5 -3.9 l 28.4 -9.6 l 5.5 -1.9 s 32 1.7 40.7 23.7 S 777.3 537.4 777.3 537.4 Z" transform="translate(-88.6,-43.4)" fill="#e7c7ca"/><path d="M 777.3 537.4 l -1.6 0 c 9.3 -7.7 30.4 -31.1 -32.2 -48.1 l 5.5 -1.9 s 32 1.7 40.7 23.7 S 777.3 537.4 777.3 537.4 Z" transform="translate(-88.6,-43.4)" opacity="0.1"/><circle cx="629.9" cy="466.3" r="1.8" fill="#4b4b5b"/><circle cx="619.7" cy="469.2" r="1.8" fill="#4b4b5b"/><g opacity="0.1"><path d="M 661.2 100.4 C 661.6 89.4 659.6 78.4 655.4 68.2 c -13 1.9 -27.2 -8.1 -39.1 -2.1 c -8.8 4.4 -11.5 15.6 -12 25.4 c -0.1 2.6 -0.1 5.2 -0.1 7.8 c 0 -0.9 0 -1.8 0.1 -2.8 c 0.5 -9.8 3.2 -20.9 12 -25.4 c 11.8 -6 26.1 4 39.1 2.1 C 659 81.9 660.9 91.1 661.2 100.4 Z" transform="matrix(1.2,0,0,1.6,-220.2,-36.5)"/><path d="M 552.6 97.1 C 552.8 95 552.7 92.8 552.5 90.6 c -1.1 -8.8 -5.9 -17.2 -6.7 -25.8 c -1.1 10.3 5.5 20.3 6.7 30.8 C 552.6 96.1 552.6 96.6 552.6 97.1 Z" transform="matrix(1.2,0,0,1.6,-210.9,-34.2)"/><path d="M 607.4 115.8 c -0.6 7.4 -2.4 15.4 -8 20.3 s -16 4.6 -19.1 -2.1 c -1 -2 -1.1 -4.3 -2.1 -6.3 c -2.2 -4.6 -7.7 -6.4 -12.5 -8.2 c -13.5 -5.1 -26.6 -15 -29.5 -29.2 C 535.9 89.1 535.8 87.7 535.7 86.4 C 535.4 89.4 535.6 92.4 536.2 95.3 c 2.9 14.2 16 24.1 29.5 29.2 c 4.8 1.8 10.2 3.6 12.5 8.2 c 1 2 1.2 4.3 2.1 6.3 c 3.1 6.7 13.5 7 19.1 2.1 s 7.3 -12.8 8 -20.3 C 607.7 116.9 607.8 113 607.7 109.1 C 607.7 111.4 607.6 113.6 607.4 115.8 Z" transform="matrix(1.2,0,0,1.6,-213.5,78.7)"/><path d="M 696.6 107.5 c 0 1.4 0 2.9 0 4.3 c 0.6 -18.6 7.4 -37.3 6.7 -55.5 C 702.8 73.1 697 90.3 696.6 107.5 Z" transform="matrix(1.2,0,0,1.6,-227.6,-24.4)"/><path d="M 671.8 131.9 C 672 130.7 672.1 129.5 672 128.3 C 671.6 125.7 670.7 123.2 669.3 121 c -5.8 -11 -12.4 -22.3 -13.1 -34.5 c 0 0.5 -0.1 1 -0.1 1.6 c -0.4 13.5 6.9 25.9 13.2 37.9 C 670.4 127.9 671.2 129.9 671.8 131.9 Z" transform="matrix(1.2,0,0,1.6,-223.6,56.3)"/><path d="M 700.6 93 C 699.8 105.1 696.4 116.9 690.5 127.5 c -5.3 9.6 -14.6 19.2 -25.4 17.3 C 664.1 144.8 663.2 144.4 662.5 143.7 C 662.3 143.5 662.1 143.2 662 142.9 c -0.1 0.8 -0.2 1.6 -0.3 2.4 C 661.5 146.5 661.8 147.7 662.5 148.7 C 663.2 149.4 664.1 149.8 665.1 149.9 c 10.8 1.9 20.1 -7.7 25.4 -17.3 C 696.4 121.9 699.8 110.1 700.6 98 c 0.1 -2.3 0.1 -4.7 0.1 -7 C 700.6 91.7 700.6 92.4 700.6 93 Z" transform="matrix(1.2,0,0,1.6,-225.5,95.2)"/></g><path d="M 695.3 519.3 s 25.3 10.6 42 -12.9" transform="translate(-88.6,-43.4)" fill="none" stroke="#000000" stroke-miterlimit="10" opacity="0.1"/><path d="M 700.3 537.9 s 20.7 -13.4 47 -0.4" transform="translate(-88.6,-43.4)" fill="none" stroke="#000000" stroke-miterlimit="10" opacity="0.1"/><path d="M 561.9 534.8 s 8.7 -19.6 31.9 -4.7" transform="translate(-88.6,-43.4)" fill="none" stroke="#000000" stroke-miterlimit="10" opacity="0.1"/><path d="M 533.8 245.3 l 17.7 -16 s 68.6 -4.5 71.5 18.8 c 0 0 24.3 -27.7 75.5 -21.5 l 21.6 17.2 l -59.8 26.3 l -58.1 20.2 l -42.8 -19.2 Z" transform="translate(-88.6,-43.4)" opacity="0.1"/><path d="M 533.8 246.3 l 17.7 -16 s 68.6 -4.5 71.5 18.8 c 0 0 24.3 -27.7 75.5 -21.5 l 21.6 17.2 l -59.8 26.3 l -58.1 20.2 l -42.8 -19.2 Z" transform="translate(-88.6,-43.4)" fill="#d5d6db"/><polygon points="437.4,204.8 445.2,298.5 528.2,302.7 524.6,209.4 524.5,207.8 437.4,204.8" opacity="0.1"/><polygon points="437.4,202.8 445.2,296.5 528.2,300.7 524.6,207.4 524.5,205.8 437.4,202.8" fill="#6c63ff"/><polygon points="635.3,202.8 549.7,215.7 549.7,309.8 633.4,297.7 635.3,202.8" opacity="0.1"/><polygon points="635.3,200.8 549.7,213.7 549.7,307.8 633.4,295.7 635.3,200.8" fill="#6c63ff"/><polygon points="615.1,223.8 568.9,228.9 569.9,244.7 615.1,239.8 615.1,223.8" fill="#ffffff" opacity="0.3"/><path d="M 538.3 390.1 L 543 402.8 s 7 6 14.7 3 s 14.3 -4.5 17.7 -7.4 s 8 -17.6 8 -17.6 s 4.7 -16 9.3 -20 s 17 -59.1 0 -53.7 s -30 55.4 -30 55.4 s -3 3.7 -7.3 4 s -13 -0.7 -14.7 3 S 533.3 382.8 538.3 390.1 Z" transform="translate(-88.6,-43.4)" fill="#be6f72"/><path d="M 638.3 259.1 a 28.8 28.8 0 0 1 -25.1 -6.3 l 3.6 93.3 s 8.5 9.2 21.5 7.1 Z" transform="translate(-88.6,-43.4)" opacity="0.1"/><path d="M 638.3 257.1 a 28.8 28.8 0 0 1 -25.1 -6.3 l 3.6 93.3 s 8.5 9.2 21.5 7.1 Z" transform="translate(-88.6,-43.4)" fill="#6c63ff"/><path d="M 638.3 257.1 a 28.8 28.8 0 0 1 -25.1 -6.3 l 3.6 93.3 s 8.5 9.2 21.5 7.1 Z" transform="translate(-88.6,-43.4)" opacity="0.1"/><path d="M 640.3 246.6 s 34.8 -10.7 43.9 -9.2" transform="translate(-88.6,-43.4)" opacity="0.1"/><path d="M 601.3 241.9 s -33.8 -8 -39.4 -5.7" transform="translate(-88.6,-43.4)" opacity="0.1"/><path d="M 662.3 247.9 s 23.3 -8.5 31.7 -4.5" transform="translate(-88.6,-43.4)" opacity="0.1"/><path d="M 650.5 462.1 A 76.6 76.6 0 0 1 662 455 c 6 -2.9 17 -10.4 17 -10.4" transform="translate(-88.6,-43.4)" opacity="0.1"/><path d="M 561.9 360.1 s -14.6 11.9 -19 13 s -7.1 10.4 -7.1 10.4" transform="translate(-88.6,-43.4)" opacity="0.1"/><path d="M 715.3 388.3 L 710.7 401 s -7 6 -14.7 3 s -14.3 -4.5 -17.7 -7.4 s -8 -17.6 -8 -17.6 s -4.7 -16 -9.3 -20 s -17 -59.1 0 -53.7 s 30 55.4 30 55.4 s 3 3.7 7.3 4 s 13 -0.7 14.7 3 S 720.3 381 715.3 388.3 Z" transform="translate(-88.6,-43.4)" fill="#be6f72"/><path d="M 707.1 364.9 s 9.6 6.1 9.5 13.5" transform="translate(-88.6,-43.4)" opacity="0.1"/><circle cx="537.5" cy="98.9" r="44.7" fill="#be6f72"/><path d="M 598.1 130.3 c 5.4 -0.8 10.2 -4 15.3 -5.8 c 11.6 -4.1 24.4 -1.3 36.1 2.4 c 4.5 1.4 9.1 3 13.8 3 s 9.7 -1.9 12.1 -6 c 2.2 -3.7 1.8 -8.6 -0.1 -12.5 s -5 -7.1 -8.2 -10.1 c -10.4 -9.8 -23.3 -19 -37.6 -18 c -5.7 0.4 -11.2 2.5 -16.5 4.7 a 182 182 0 0 0 -19.4 9.8 c -4.8 2.8 -13.7 6.5 -16.5 11.6 C 571 120.9 588.3 131.8 598.1 130.3 Z" transform="translate(-88.6,-43.4)" fill="#3e373a"/><path d="M 675.5 119.7 c -2.4 4.1 -7.4 6 -12.1 6 s -9.3 -1.5 -13.8 -2.9 c -11.7 -3.7 -24.5 -6.5 -36.1 -2.4 c -5.2 1.8 -9.9 5 -15.3 5.8 c -7.9 1.2 -20.6 -5.6 -22 -14.4 c -1.6 10.1 13.2 18.8 22 17.4 c 5.4 -0.8 10.2 -4 15.3 -5.8 c 11.6 -4.1 24.4 -1.3 36.1 2.4 c 4.5 1.4 9.1 3 13.8 2.9 s 9.7 -1.9 12.1 -6 a 11.7 11.7 0 0 0 1.4 -7.3 A 10.8 10.8 0 0 1 675.5 119.7 Z" transform="translate(-88.6,-43.4)" opacity="0.1"/><path d="M 1038 661.6 s 5.9 7.8 -2.7 19.5 s -15.8 21.6 -12.9 28.9 c 0 0 13.1 -21.7 23.7 -22.1 S 1049.7 674.7 1038 661.6 Z" transform="translate(-88.6,-43.4)" fill="#6c63ff"/><path d="M 1038 661.6 a 9.6 9.6 0 0 1 1.2 2.4 c 10.4 12.2 15.9 23.6 5.9 23.9 c -9.3 0.3 -20.4 16.9 -23.1 21.1 a 9.8 9.8 0 0 0 0.3 1 s 13.1 -21.7 23.7 -22.1 S 1049.7 674.7 1038 661.6 Z" transform="translate(-88.6,-43.4)" opacity="0.1"/><path d="M 1049 671.5 c 0 2.7 -0.3 4.9 -0.7 4.9 s -0.7 -2.2 -0.7 -4.9 s 0.4 -1.4 0.8 -1.4 S 1049 668.8 1049 671.5 Z" transform="translate(-88.6,-43.4)" fill="#ffd037"/><path d="M 1052.8 674.8 c -2.4 1.3 -4.5 2.1 -4.7 1.8 s 1.6 -1.7 4 -3 s 1.4 -0.4 1.6 0 S 1055.2 673.5 1052.8 674.8 Z" transform="translate(-88.6,-43.4)" fill="#ffd037"/><path d="M 1006.7 661.6 s -5.9 7.8 2.7 19.5 s 15.8 21.6 12.9 28.9 c 0 0 -13.1 -21.7 -23.7 -22.1 S 995 674.7 1006.7 661.6 Z" transform="translate(-88.6,-43.4)" fill="#6c63ff"/><path d="M 1006.7 661.6 a 9.6 9.6 0 0 0 -1.2 2.4 c -10.4 12.2 -15.9 23.6 -5.9 23.9 c 9.3 0.3 20.4 16.9 23.1 21.1 a 7.7 7.7 0 0 1 -0.3 1 s -13.1 -21.7 -23.7 -22.1 S 995 674.7 1006.7 661.6 Z" transform="translate(-88.6,-43.4)" opacity="0.1"/><path d="M 995.6 671.5 c 0 2.7 0.3 4.9 0.7 4.9 s 0.7 -2.2 0.7 -4.9 s -0.4 -1.4 -0.8 -1.4 S 995.6 668.8 995.6 671.5 Z" transform="translate(-88.6,-43.4)" fill="#ffd037"/><path d="M 991.9 674.8 c 2.4 1.3 4.5 2.1 4.7 1.8 s -1.6 -1.7 -4 -3 s -1.4 -0.4 -1.6 0 S 989.5 673.5 991.9 674.8 Z" transform="translate(-88.6,-43.4)" fill="#ffd037"/><ellipse cx="933.8" cy="716.4" rx="62" ry="9.5" fill="#6c63ff" opacity="0.1"/><path d="M 1054.2 699.5 l -0.3 2.4 l -0.4 3.4 l -0.2 1.4 l -0.4 3.4 l -0.2 1.4 l -0.4 3.4 l -4.8 38.9 c -0.4 3.5 -6.1 6.2 -12.9 6.2 H 1010 c -6.8 0 -12.5 -2.7 -12.9 -6.2 l -4.8 -38.9 l -0.4 -3.4 l -0.2 -1.4 l -0.4 -3.4 l -0.2 -1.4 l -0.4 -3.4 l -0.3 -2.4 c -0.2 -2 2.8 -3.6 6.7 -3.6 h 50.4 C 1051.4 695.9 1054.5 697.6 1054.2 699.5 Z" transform="translate(-88.6,-43.4)" fill="#65617d"/><polygon points="965.4,658.5 965,662 902.5,662 902.1,658.5 965.4,658.5" fill="#9d9cb5"/><polygon points="964.8,663.4 964.4,666.8 903.1,666.8 902.7,663.4 964.8,663.4" fill="#9d9cb5"/><polygon points="964.2,668.2 963.8,671.6 903.7,671.6 903.3,668.2 964.2,668.2" fill="#9d9cb5"/></svg>